<mxfile host="65bd71144e">
    <diagram id="ow-l8K0J0a3O5udsZAlA" name="Page-1">
        <mxGraphModel dx="1392" dy="623" grid="1" gridSize="10" guides="1" tooltips="1" connect="1" arrows="1" fold="1" page="1" pageScale="1" pageWidth="850" pageHeight="1100" math="0" shadow="0">
            <root>
                <mxCell id="0"/>
                <mxCell id="1" parent="0"/>
                <mxCell id="2" value="&lt;b&gt;&lt;font style=&quot;font-size: 19px&quot;&gt;Controller&lt;/font&gt;&lt;/b&gt;" style="rounded=1;whiteSpace=wrap;html=1;fillColor=#1ba1e2;fontColor=#ffffff;strokeColor=#006EAF;" vertex="1" parent="1">
                    <mxGeometry x="250" y="150" width="265" height="70" as="geometry"/>
                </mxCell>
                <mxCell id="3" value="&lt;span style=&quot;font-size: 19px&quot;&gt;&lt;b&gt;Repository&lt;/b&gt;&lt;/span&gt;" style="rounded=1;whiteSpace=wrap;html=1;fillColor=#1ba1e2;fontColor=#ffffff;strokeColor=#006EAF;" vertex="1" parent="1">
                    <mxGeometry x="250" y="330" width="265" height="70" as="geometry"/>
                </mxCell>
                <mxCell id="4" value="&lt;b&gt;&lt;font style=&quot;font-size: 19px&quot;&gt;DbContext&lt;/font&gt;&lt;/b&gt;" style="rounded=1;whiteSpace=wrap;html=1;fillColor=#1ba1e2;fontColor=#ffffff;strokeColor=#006EAF;" vertex="1" parent="1">
                    <mxGeometry x="250" y="500" width="265" height="70" as="geometry"/>
                </mxCell>
                <mxCell id="14" value="" style="edgeStyle=none;html=1;fontSize=19;fontColor=#000000;strokeColor=#d79b00;strokeWidth=4;fillColor=#ffcd28;gradientColor=#ffa500;" edge="1" parent="1" source="5" target="6">
                    <mxGeometry relative="1" as="geometry"/>
                </mxCell>
                <mxCell id="5" value="&lt;font color=&quot;#ffffff&quot;&gt;&lt;span style=&quot;font-size: 19px&quot;&gt;&lt;b&gt;GetProducts()&lt;/b&gt;&lt;/span&gt;&lt;/font&gt;" style="rounded=0;whiteSpace=wrap;html=1;fillColor=#dae8fc;strokeColor=#6c8ebf;gradientColor=#7ea6e0;" vertex="1" parent="1">
                    <mxGeometry x="580" y="150" width="250" height="60" as="geometry"/>
                </mxCell>
                <mxCell id="15" value="" style="edgeStyle=none;html=1;fontSize=19;fontColor=#000000;strokeColor=#d79b00;strokeWidth=4;fillColor=#ffcd28;gradientColor=#ffa500;" edge="1" parent="1" source="6" target="7">
                    <mxGeometry relative="1" as="geometry"/>
                </mxCell>
                <mxCell id="6" value="&lt;b style=&quot;color: rgb(255 , 255 , 255)&quot;&gt;&lt;font style=&quot;font-size: 19px&quot;&gt;_context.Products.ToList()&lt;/font&gt;&lt;/b&gt;" style="rounded=0;whiteSpace=wrap;html=1;fillColor=#dae8fc;gradientColor=#7ea6e0;strokeColor=#6c8ebf;" vertex="1" parent="1">
                    <mxGeometry x="580" y="335" width="250" height="60" as="geometry"/>
                </mxCell>
                <mxCell id="7" value="&lt;b style=&quot;color: rgb(255 , 255 , 255)&quot;&gt;&lt;font style=&quot;font-size: 19px&quot;&gt;SELECT * FROM PRODUCTS&lt;/font&gt;&lt;/b&gt;" style="rounded=0;whiteSpace=wrap;html=1;fillColor=#dae8fc;gradientColor=#7ea6e0;strokeColor=#6c8ebf;" vertex="1" parent="1">
                    <mxGeometry x="580" y="505" width="250" height="60" as="geometry"/>
                </mxCell>
                <mxCell id="8" value="" style="shape=datastore;whiteSpace=wrap;html=1;fillColor=#4D4D4D;" vertex="1" parent="1">
                    <mxGeometry x="680" y="640" width="60" height="60" as="geometry"/>
                </mxCell>
                <mxCell id="9" value="" style="curved=1;endArrow=classic;html=1;strokeColor=#3333FF;exitX=-0.009;exitY=0.1;exitDx=0;exitDy=0;exitPerimeter=0;strokeWidth=4;" edge="1" parent="1" source="4">
                    <mxGeometry width="50" height="50" relative="1" as="geometry">
                        <mxPoint x="200" y="450" as="sourcePoint"/>
                        <mxPoint x="250" y="400" as="targetPoint"/>
                        <Array as="points">
                            <mxPoint x="250" y="450"/>
                            <mxPoint x="170" y="450"/>
                            <mxPoint x="200" y="400"/>
                        </Array>
                    </mxGeometry>
                </mxCell>
                <mxCell id="10" value="" style="whiteSpace=wrap;html=1;aspect=fixed;fillColor=#99FFFF;" vertex="1" parent="1">
                    <mxGeometry x="10" y="220" width="130" height="130" as="geometry"/>
                </mxCell>
                <mxCell id="11" value="&lt;b&gt;&lt;font style=&quot;font-size: 14px&quot;&gt;IRepository&lt;/font&gt;&lt;/b&gt;" style="text;html=1;strokeColor=none;fillColor=none;align=center;verticalAlign=middle;whiteSpace=wrap;rounded=0;fontColor=#000000;" vertex="1" parent="1">
                    <mxGeometry x="20" y="220" width="60" height="30" as="geometry"/>
                </mxCell>
                <mxCell id="13" value="&lt;font style=&quot;font-size: 13px&quot;&gt;GetProducts()&lt;br&gt;GetProducts(int id)&lt;/font&gt;" style="text;html=1;strokeColor=none;fillColor=none;align=left;verticalAlign=middle;whiteSpace=wrap;rounded=0;fontColor=#000000;" vertex="1" parent="1">
                    <mxGeometry x="10" y="260" width="120" height="35" as="geometry"/>
                </mxCell>
                <mxCell id="18" value="" style="curved=1;endArrow=classic;html=1;fontSize=19;fontColor=#000000;strokeColor=#d79b00;strokeWidth=4;fillColor=#ffcd28;gradientColor=#ffa500;" edge="1" parent="1">
                    <mxGeometry width="50" height="50" relative="1" as="geometry">
                        <mxPoint x="750" y="490" as="sourcePoint"/>
                        <mxPoint x="810" y="400" as="targetPoint"/>
                        <Array as="points">
                            <mxPoint x="760" y="500"/>
                            <mxPoint x="800" y="470"/>
                        </Array>
                    </mxGeometry>
                </mxCell>
                <mxCell id="20" value="" style="curved=1;endArrow=classic;html=1;fontSize=19;fontColor=#000000;strokeColor=#3333FF;strokeWidth=4;entryX=0;entryY=0.5;entryDx=0;entryDy=0;" edge="1" parent="1" target="2">
                    <mxGeometry width="50" height="50" relative="1" as="geometry">
                        <mxPoint x="90" y="210" as="sourcePoint"/>
                        <mxPoint x="140" y="140" as="targetPoint"/>
                        <Array as="points">
                            <mxPoint x="140" y="190"/>
                            <mxPoint x="90" y="180"/>
                        </Array>
                    </mxGeometry>
                </mxCell>
                <mxCell id="21" value="" style="curved=1;endArrow=classic;html=1;fontSize=19;fontColor=#000000;strokeColor=#d79b00;strokeWidth=4;fillColor=#ffcd28;gradientColor=#ffa500;" edge="1" parent="1">
                    <mxGeometry width="50" height="50" relative="1" as="geometry">
                        <mxPoint x="760" y="317.5" as="sourcePoint"/>
                        <mxPoint x="820" y="227.5" as="targetPoint"/>
                        <Array as="points">
                            <mxPoint x="770" y="327.5"/>
                            <mxPoint x="810" y="297.5"/>
                        </Array>
                    </mxGeometry>
                </mxCell>
            </root>
        </mxGraphModel>
    </diagram>
</mxfile>